<svg width="45" height="9" xmlns="http://www.w3.org/2000/svg"><defs><linearGradient x1="19.127%" y1="100%" x2="100%" y2="100%" id="a"><stop stop-color="#019642" offset="0%"/><stop stop-color="#019642" stop-opacity="0" offset="100%"/></linearGradient></defs><g fill="none" fill-rule="evenodd"><g fill="#34AB68"><path d="M28.425.825v5.673l-.574.734h-2.155l.102-.624.36-.261h.85l.314-.313v-4.3h-2.765l-.234-.34.185-.569h3.917zm-2.051 1.093l-.876 5.314h-1.093l.887-5.314h1.082zm-2.427.31l.294.909h-1.623l-.641 2.934h.987l-.142-.922.246-.426h.707l.392 2.308h-3.454l.722-3.894h-.428l-.294-.908h3.234zM24.24.826l-.178.55.178.358h-3.528l.294-.908h3.234zM26.62 0l-.1.66h-1.049l.105-.66h1.044zM32.362 4.003l.52.31v.931h2.499l.492.33v.505h-2.99v1.03l-.52.17-.52-.17V4.313l.52-.31zm-.665 1.233v.862h-2.944v-.561l.294-.3h2.65zM31.22 0l-1.132 3.149h1.71l.55-.324.55.324h2.975l-.266.832h-2.709l-.55-.297-.55.297h-3.045L30.088 0h1.132zm-1.452.465l-.316.916h-.7V.465h1.016zm6.105 0l-.24.695-.26.221h-4.45l.316-.916h4.634zM39.032.165l-1.141 2.287h1.141l-1.141 2.316h1.141v1.453l-.273.378-2.541.544v-.846l2.617-.798h-2.469l1.158-2.286h-1.12L37.89.165h1.141zm4.445.064l.465.506v5.55h.363v.858h-1.33V1.329l-.303-.285h-2.31v.925l.188.215h2.118v.782h-3.283V.23h4.092zM40.44 3.136v1.2h1.5l.281.245v.462H40.44v.998l.286.262h2.09v.84h-3.799v-.84h.368V3.136h1.055z"/></g><path d="M8.943 5.078l.49.474v3.06l-.49.353H.918L0 7.957h8.263V6.005H1.367v.547h6.478v.327l-.693.507H0V5.078h8.943zM4.636 2.302v.938H3.454L4.93 4.664H3.454l-.571-.569V2.302h1.753zm-2.307 0v1.793l-.572.569H0L1.757 3.24H0v-.938h2.329zM9.126.41l.308.413v3.841l-4.119-.107V.41h3.81zm-.716.845H6.192v2.38H8.63V1.458l-.22-.203zM.467.092L1.39.11l.283.394-.052.16h3.015v1.069H3.274l-.089.43h-1.18l.064-.43H0L.467.092z" fill="#019642"/><path d="M15.151 3.28l.306.63v5.068H13.08l.671-1.01h.788V4.316l-.188-.407h-2.867v.953h2.38v.924H10.48V3.28h4.671zm-1.353 3.169l.194.33v.596h-2.4v.593l-.294 1.01h-1.3l.458-1.01v-1.52h3.342zm3.084-1.473l.376.519-.046 1.477.82-.881h1.11l-1.59 1.98h26.753l-.477.896H16.18l-.263-.322V4.976h.965zM16.789.185l.331.519-.042 1.477.752-.881h1.004l-1.439 1.98h2.73l-.431.896h-3.54l-.237-.322V.185h.872zM12.953.041l-.72 1.536h1.794l-.275-.68h.942l.522.48.475 1.181H10.48L11.543.041h1.41z" fill="url(#a)"/></g></svg>